<?xml version="1.0"?>
<!DOCTYPE svg PUBLIC "-//W3C//DTD SVG 1.1//EN"
  "http://www.w3.org/Graphics/SVG/1.1/DTD/svg11.dtd">

<svg
	xmlns="http://www.w3.org/2000/svg"
	xmlns:xlink="http://www.w3.org/1999/xlink"
	version="1.1"
	x="0px"
	y="0px"
	fill="#ef2a79"
	viewBox="0 0 46 22"
	enable-background="new 0 0 46 22"
	xml:space="preserve"
>
	<path d="M31.555 5.515c3.209 1.5 4.8 3.4 4.8 5.5 c-0.007 2.153-1.619 3.989-4.828 5.526c-2.771 1.34-6.027 2.108-9.771 2.324c-0.609 0.025-1.225 0.051-1.859 0.1 c-0.684 0.013-1.354-0.008-2.014-0.036c-0.561-0.015-1.115-0.063-1.662-0.106c-1.662-0.168-3.221-0.453-4.68-0.863 c-1.162-0.322-2.253-0.726-3.274-1.208c-3.22-1.501-4.828-3.323-4.828-5.475c0-2.153 1.608-4.008 4.828-5.563 c2.542-1.215 5.509-1.954 8.885-2.231l1.471-3.214c-4.506 0.41-8.472 1.452-11.901 3.106C2.252 5.5 0 8.1 0 11.2 c0 3 2.3 5.6 6.7 7.716c4.494 2.1 9.9 3.2 16.3 3.125c6.343-0.044 11.761-1.16 16.249-3.349 C43.746 16.5 46 13.9 46 10.854c0-3.037-2.254-5.617-6.748-7.751c-4.119-1.939-9.016-2.965-14.699-3.093 c-0.51-0.008-1.027-0.015-1.55-0.008c-0.685 0-1.361 0.019-2.021 0.044l-7.61 16.638c1.018 0.2 2.1 0.4 3.2 0.5 c0.025 0 0.1 0 0.1 0.011l6.311-13.76C26.241 3.7 29.1 4.4 31.6 5.515z"/>
</svg>